<?xml version="1.0" standalone="no"?>
<!DOCTYPE svg PUBLIC "-//W3C//DTD SVG 20010904//EN"
 "http://www.w3.org/TR/2001/REC-SVG-20010904/DTD/svg10.dtd">
<svg version="1.0" xmlns="http://www.w3.org/2000/svg"
 width="150.000000pt" height="150.000000pt" viewBox="0 0 150.000000 150.000000"
 preserveAspectRatio="xMidYMid meet">

<g transform="translate(0.000000,150.000000) scale(0.100000,-0.100000)"
fill="#000000" stroke="none">
<path d="M487 1253 c-69 -48 -217 -268 -277 -413 -16 -40 -30 -74 -30 -76 0
-2 10 -4 23 -4 12 0 60 25 107 56 82 53 85 55 88 32 7 -55 43 -88 96 -88 49 0
158 42 222 86 36 25 68 43 71 40 3 -2 -8 -24 -24 -48 -67 -97 -39 -104 87 -22
l85 55 6 -31 c16 -74 74 -94 177 -60 73 24 183 87 190 109 3 8 -13 3 -39 -13
-65 -40 -109 -58 -156 -64 -56 -6 -73 9 -73 64 0 23 -4 45 -8 48 -16 10 -79
-14 -141 -54 -34 -22 -66 -40 -71 -40 -6 0 8 27 31 60 66 97 31 100 -93 9
-102 -76 -212 -111 -246 -77 -7 7 -12 31 -12 54 0 24 -4 45 -8 48 -16 10 -79
-14 -141 -54 -34 -22 -66 -40 -72 -40 -23 0 37 86 108 152 132 127 205 245
173 283 -17 20 -28 18 -73 -12z m17 -106 c-47 -66 -136 -167 -146 -167 -11 0
102 167 145 216 47 55 49 18 1 -49z"/>
<path d="M219 661 c-44 -43 -47 -56 -20 -70 16 -9 19 -6 24 19 7 34 40 70 63
70 13 0 15 -6 9 -27 -9 -38 -33 -73 -49 -73 -8 0 -17 -7 -20 -16 -4 -12 -2
-15 9 -10 20 7 19 -2 -4 -41 -19 -29 -18 -43 1 -43 4 0 18 20 30 45 20 41 25
45 59 45 37 0 38 0 29 -31 -9 -31 1 -69 19 -69 4 0 11 24 14 53 3 28 17 78 31
111 31 69 31 68 9 64 -10 -2 -26 -26 -39 -58 -20 -51 -24 -55 -51 -52 -15 2
-29 5 -30 6 -2 1 5 21 14 44 13 34 13 44 3 57 -22 26 -60 18 -101 -24z"/>
<path d="M1113 678 c-6 -7 -23 -41 -38 -75 -15 -34 -38 -72 -52 -85 l-25 -23
7 25 c4 14 14 37 21 52 16 31 -1 52 -20 25 -52 -76 -70 -99 -73 -90 -3 7 5 30
17 52 11 23 19 41 18 42 -2 1 -22 3 -45 5 -38 3 -45 0 -66 -29 -32 -42 -39
-73 -20 -89 10 -8 19 -9 31 -1 12 7 22 7 35 -1 13 -8 22 -7 39 3 16 10 23 10
26 2 5 -15 35 -14 50 1 9 9 15 9 24 0 21 -21 44 -13 77 29 25 31 36 38 45 29
8 -9 6 -15 -7 -24 -42 -26 -50 -34 -43 -44 17 -29 106 -4 106 29 0 5 23 9 51
9 36 0 49 4 46 13 -3 8 -23 12 -60 11 -59 -1 -76 12 -61 50 4 11 1 16 -13 16
-13 0 -34 -20 -58 -55 -20 -30 -41 -55 -45 -55 -8 0 20 78 50 143 15 31 1 58
-17 35z m-193 -93 c0 -7 -52 -85 -56 -85 -10 0 -2 28 16 58 17 27 40 43 40 27z
m260 -84 c0 -14 -18 -23 -30 -16 -6 4 -8 11 -5 16 8 12 35 12 35 0z"/>
<path d="M639 641 c-19 -21 -53 -61 -77 -90 -24 -28 -47 -51 -52 -51 -4 0 0
21 10 48 12 33 24 48 39 50 24 4 29 22 6 22 -12 0 -13 4 -6 19 6 10 7 21 4 25
-14 14 -32 4 -42 -24 -6 -18 -17 -30 -28 -30 -14 0 -15 -2 -5 -9 12 -7 11 -13
-1 -37 -8 -16 -25 -38 -37 -49 l-23 -20 8 25 c4 14 14 37 21 51 13 26 10 39
-8 39 -13 0 -61 -108 -53 -120 9 -15 41 -12 55 5 10 13 14 12 30 -7 17 -21 18
-21 44 -5 14 10 51 51 81 91 50 68 70 86 97 86 15 0 1 -62 -28 -128 -29 -66
-29 -62 -4 -62 11 0 20 6 20 13 0 14 109 151 116 145 2 -2 -5 -28 -16 -56 -18
-47 -26 -102 -16 -102 2 0 11 -3 20 -6 13 -5 16 1 16 30 0 19 11 65 25 101 21
57 22 67 9 72 -10 4 -35 -13 -71 -48 -31 -30 -53 -46 -49 -36 16 46 17 68 6
82 -22 26 -56 17 -91 -24z"/>
<path d="M464 655 c-10 -24 6 -38 22 -18 7 10 14 21 14 26 0 13 -31 7 -36 -8z"/>
<path d="M1034 655 c-10 -24 6 -38 22 -18 7 10 14 21 14 26 0 13 -31 7 -36 -8z"/>
<path d="M460 379 c110 -9 480 -9 590 0 53 5 -59 8 -295 8 -236 0 -348 -3
-295 -8z"/>
<path d="M563 303 c-8 -2 -13 -22 -13 -44 0 -34 3 -39 23 -39 34 0 46 13 43
44 -4 36 -24 51 -53 39z m37 -23 c0 -5 -7 -10 -15 -10 -8 0 -15 5 -15 10 0 6
7 10 15 10 8 0 15 -4 15 -10z m0 -30 c0 -5 -7 -10 -15 -10 -8 0 -15 5 -15 10
0 6 7 10 15 10 8 0 15 -4 15 -10z"/>
<path d="M810 290 c-16 -16 -18 -25 -10 -40 5 -10 15 -22 20 -25 16 -10 50 5
50 21 0 17 -17 19 -22 2 -3 -7 -12 -9 -22 -5 -23 9 -16 42 9 43 38 3 40 4 25
14 -21 14 -27 13 -50 -10z"/>
<path d="M636 292 c-6 -11 -2 -60 7 -69 4 -3 7 1 7 10 0 21 9 21 30 2 16 -14
17 -13 16 22 -1 33 -4 38 -28 41 -14 2 -29 -1 -32 -6z m47 -17 c1 -5 -6 -11
-15 -13 -11 -2 -18 3 -18 13 0 17 30 18 33 0z"/>
<path d="M724 265 c-18 -45 -18 -48 6 -33 16 10 24 10 40 0 24 -15 24 -14 5
32 -19 45 -32 46 -51 1z m36 6 c0 -6 -4 -13 -10 -16 -5 -3 -10 1 -10 9 0 9 5
16 10 16 6 0 10 -4 10 -9z"/>
<path d="M894 265 c-18 -45 -18 -48 6 -33 16 10 24 10 40 0 24 -15 24 -14 5
32 -19 45 -32 46 -51 1z m36 5 c0 -5 -4 -10 -10 -10 -5 0 -10 5 -10 10 0 6 5
10 10 10 6 0 10 -4 10 -10z"/>
</g>
</svg>
